# xmcd
#
# Track frame offsets:
#	150
#	16495
#	29067
#	46447
#	58132
#	71772
#	86835
#	99172
#	108275
#	125245
#	141497
#
# Disc length: 2087 seconds
#
# Revision: 1
# Processed by: cddbd v1.5.1PL0 Copyright (c) Steve Scherf et al.
# Submitted via: CDex 1.50Beta5
#
DISCID=a608250b
DTITLE=Al Yankovic - THE FOOD ALBUM
DYEAR=1900
DGENRE=
TTITLE0=FAT
TTITLE1=LASAGNA
TTITLE2=ADDICTED TO SPUDS
TTITLE3=I LOVE ROCKY ROAD
TTITLE4=SPAM
TTITLE5=EAT IT
TTITLE6=THE WHTE STUFF
TTITLE7=MY BOLOGNA
TTITLE8=TACO GRANDE
TTITLE9=THE RYE OR THE KAISER
TTITLE10=EAT IT (WITHOUT VOCALS)
EXTD=
EXTT0=
EXTT1=
EXTT2=
EXTT3=
EXTT4=
EXTT5=
EXTT6=
EXTT7=
EXTT8=
EXTT9=
EXTT10=
PLAYORDER=
